<?xml version="1.0" standalone="no"?>
<!DOCTYPE svg PUBLIC "-//W3C//DTD SVG 20010904//EN"
 "http://www.w3.org/TR/2001/REC-SVG-20010904/DTD/svg10.dtd">
<svg version="1.0" xmlns="http://www.w3.org/2000/svg"
 width="64.000000pt" height="64.000000pt" viewBox="0 0 64.000000 64.000000"
 preserveAspectRatio="xMidYMid meet">

<g transform="translate(0.000000,64.000000) scale(0.100000,-0.100000)"
fill="#000000" stroke="none">
<path d="M243 631 c-59 -15 -138 -67 -174 -116 -122 -159 -76 -377 101 -474
59 -32 72 -36 145 -36 66 0 90 5 136 26 117 55 184 160 184 289 0 129 -67 235
-183 288 -58 26 -154 37 -209 23z m167 -47 c74 -22 152 -100 174 -174 20 -68
20 -117 0 -177 -25 -75 -26 -75 -106 -34 -65 33 -77 36 -158 36 -81 0 -93 -3
-158 -36 -80 -41 -81 -41 -106 34 -35 105 -11 203 69 284 79 78 173 100 285
67z m6 -399 c27 -8 62 -25 78 -38 l29 -24 -36 -27 c-42 -32 -114 -56 -167 -56
-55 0 -131 26 -169 58 l-34 28 32 23 c69 49 175 64 267 36z"/>
<path d="M261 543 c-124 -65 -93 -242 45 -259 73 -9 141 46 150 122 13 104
-103 186 -195 137z m108 -37 c47 -25 63 -83 37 -135 -35 -66 -137 -66 -172 0
-47 91 44 182 135 135z"/>
</g>
</svg>
